# xmcd CD database file
#
# Track frame offsets:
#	150
#	18092
#	44559
#	78016
#	106783
#	142490
#	164677
#	185279
#	199621
#	213418
#	231430
#	259512
#	273594
#	292871
#	313433
#
# Disc length: 4502 seconds
#
# Revision: 0
# Processed by: cddbd v1.5.2PL0 Copyright (c) Steve Scherf et al.
# Submitted via: CDex 1.70beta2
#
DISCID=db11940f
DTITLE=Terry Gibs and Jazz Giants - Jam Session of the 1950's Cd2
DYEAR=1900
DGENRE=Jazz
TTITLE0=Georgie Auld - I've got a crunsh on you
TTITLE1=Georgie Auld - Tea for Two
TTITLE2=Georgie Auld - One O'Clock Jump
TTITLE3=Georgie Auld - Lucky Duck
TTITLE4=Perdido
TTITLE5=These Foolish Things 
TTITLE6=Don't Blame Me with Jackie Paris
TTITLE7=You go to my Head
TTITLE8=Cool Blues
TTITLE9=Tony Scott - Bob's Blob
TTITLE10=Tony Scott - Cupcake
TTITLE11=Hot Lips Page - St Louis Blues
TTITLE12=Hot Lips Page - On the Sunnyside of the Street
TTITLE13=Hot Lips Page - St James Infirmary
TTITLE14=Hot Lips Page - The Sheik of Araby
EXTD=
EXTT0=
EXTT1=
EXTT2=
EXTT3=
EXTT4=
EXTT5=
EXTT6=
EXTT7=
EXTT8=
EXTT9=
EXTT10=
EXTT11=
EXTT12=
EXTT13=
EXTT14=
PLAYORDER=
